<svg width="35" height="35" viewBox="0 0 35 35" fill="none" xmlns="http://www.w3.org/2000/svg">
<path fill-rule="evenodd" clip-rule="evenodd" d="M24.3029 2.93158C26.4007 2.80046 28.4695 3.52887 30.0283 4.95656C31.456 6.51537 32.1844 8.58406 32.0678 10.6965V24.3032C32.199 26.4156 31.456 28.4843 30.0428 30.0431C28.484 31.4708 26.4007 32.1992 24.3029 32.0681H10.696C8.58362 32.1992 6.51491 31.4708 4.95609 30.0431C3.52839 28.4843 2.79997 26.4156 2.93109 24.3032V10.6965C2.79997 8.58406 3.52839 6.51537 4.95609 4.95656C6.51491 3.52887 8.58362 2.80046 10.696 2.93158H24.3029ZM16.013 24.5658L25.8175 14.7322C26.7062 13.829 26.7062 12.3722 25.8175 11.4835L23.9236 9.58962C23.0204 8.68638 21.5635 8.68638 20.6603 9.58962L19.6842 10.5803C19.5385 10.7259 19.5385 10.9736 19.6842 11.1193C19.6842 11.1193 22.0006 13.4211 22.0443 13.4793C22.2046 13.6542 22.3065 13.8873 22.3065 14.1495C22.3065 14.6739 21.8841 15.111 21.345 15.111C21.0974 15.111 20.8643 15.009 20.704 14.8488L18.2711 12.4304C18.1545 12.3139 17.9506 12.3139 17.834 12.4304L10.8849 19.3795C10.4042 19.8602 10.1274 20.5012 10.1128 21.186L10.0254 24.6386C10.0254 24.828 10.0837 25.0028 10.2148 25.134C10.3459 25.2651 10.5207 25.3379 10.7101 25.3379H14.1337C14.833 25.3379 15.5031 25.0611 16.013 24.5658Z" fill="#FB9400"/>
</svg>
