<svg width="24" height="25" viewBox="0 0 24 25" fill="none" xmlns="http://www.w3.org/2000/svg">
<g clip-path="url(#clip0_872_13114)">
<path d="M23.5078 12.7245C23.5078 11.7413 23.4295 11.0238 23.2598 10.2797H12.2295V14.7176H18.7041C18.5736 15.8205 17.8687 17.4815 16.3022 18.5976L16.2802 18.7462L19.7678 21.4964L20.0095 21.5209C22.2285 19.4347 23.5078 16.3653 23.5078 12.7245Z" fill="#4285F4"/>
<path d="M12.2296 24.4176C15.4016 24.4176 18.0645 23.3545 20.0095 21.5209L16.3023 18.5976C15.3102 19.3018 13.9787 19.7934 12.2296 19.7934C9.1228 19.7934 6.48598 17.7074 5.54603 14.824L5.40825 14.8359L1.7818 17.6927L1.73438 17.8269C3.6663 21.7334 7.63462 24.4176 12.2296 24.4176Z" fill="#34A853"/>
<path d="M5.54621 14.8239C5.2982 14.0798 5.15466 13.2825 5.15466 12.4587C5.15466 11.6349 5.2982 10.8376 5.53316 10.0935L5.52659 9.93507L1.8547 7.03235L1.73457 7.09052C0.938328 8.71162 0.481445 10.532 0.481445 12.4587C0.481445 14.3854 0.938328 16.2058 1.73457 17.8269L5.54621 14.8239Z" fill="#FBBC05"/>
<path d="M12.2295 5.12403C14.4356 5.12403 15.9237 6.09401 16.7722 6.90461L20.0878 3.60928C18.0515 1.6826 15.4015 0.5 12.2295 0.5C7.63462 0.5 3.6663 3.18406 1.73438 7.09056L5.53297 10.0936C6.48597 7.2102 9.12279 5.12403 12.2295 5.12403Z" fill="#EB4335"/>
</g>
<defs>
<clipPath id="clip0_872_13114">
<rect width="23.04" height="24" fill="white" transform="translate(0.480469 0.5)"/>
</clipPath>
</defs>
</svg>
