<svg width="32" height="32" viewBox="0 0 32 32" fill="none" xmlns="http://www.w3.org/2000/svg">
<rect width="32" height="32" rx="12" fill="url(#paint0_linear_853_12874)"/>
<path d="M12.9088 24.5333C11.415 24.5333 10.2833 24.0824 9.51379 23.1806C8.84988 22.4141 8.51793 21.3695 8.51793 20.0469C8.51793 19.1601 8.66127 18.2583 8.94796 17.3414C9.23465 16.4096 9.64959 15.4777 10.1928 14.5458C9.30255 14.2452 8.54056 13.7568 7.90683 13.0804C7.258 12.374 6.93359 11.5999 6.93359 10.7583C6.93359 9.78131 7.37872 9.04483 8.26896 8.54884C8.97814 8.15806 9.80803 7.96267 10.7586 7.96267C12.4184 7.96267 13.8669 8.49624 15.1042 9.56337C17.3525 8.16557 19.5932 7.46667 21.8263 7.46667C23.8784 7.46667 24.9045 8.00776 24.9045 9.08993C24.9045 10.142 24.067 11.2768 22.3922 12.4942C20.0383 14.2077 17.0884 15.0644 13.5425 15.0644C13.3011 15.0644 13.0597 15.0569 12.8183 15.0418C12.5919 15.0268 12.3731 15.0043 12.1619 14.9742C10.9095 16.9732 10.2833 18.8219 10.2833 20.5203C10.2833 21.4973 10.4946 22.2863 10.9171 22.8875C11.4603 23.6691 12.2826 24.0599 13.3841 24.0599C15.3909 24.0599 17.3751 22.8875 19.3367 20.5429C20.3325 19.3404 20.8305 18.2883 20.8305 17.3865C20.8305 16.5599 20.4004 16.1466 19.5404 16.1466C18.5898 16.1466 17.3977 16.6651 15.9643 17.7022C14.6968 18.634 13.7613 19.5734 13.1578 20.5203C13.1125 20.5955 13.0597 20.633 12.9993 20.633C12.8937 20.633 12.8409 20.5579 12.8409 20.4076C12.8409 20.3475 12.8484 20.3099 12.8635 20.2949C13.3313 19.2578 14.2291 18.2357 15.5569 17.2287C16.9149 16.2067 18.1371 15.6956 19.2235 15.6956C19.9478 15.6956 20.4985 15.9211 20.8757 16.372C21.2228 16.8079 21.3963 17.3339 21.3963 17.9502C21.3963 18.4612 21.2982 18.9872 21.1021 19.5283C20.9059 20.0694 20.589 20.603 20.1515 21.129C19.3216 22.1811 18.2427 23.0078 16.9149 23.609C15.5569 24.2252 14.2215 24.5333 12.9088 24.5333ZM13.5878 14.5008C14.3573 14.5008 15.1344 14.4331 15.919 14.2979C18.0767 13.892 20.1137 12.9977 22.03 11.615C23.3126 10.6981 23.9539 9.77379 23.9539 8.84193C23.9539 8.22569 23.4408 7.91758 22.4148 7.91758C20.4231 7.91758 18.3106 8.81187 16.0775 10.6004C16.2133 10.7958 16.3415 10.9912 16.4622 11.1866C16.5829 11.382 16.6961 11.5849 16.8017 11.7953C16.8621 11.9006 16.8319 11.9682 16.7112 11.9982H16.6433C16.5226 11.9982 16.4396 11.9532 16.3943 11.863C16.3189 11.7578 16.2208 11.63 16.1001 11.4797C15.9794 11.3144 15.836 11.134 15.6701 10.9386C14.4479 11.9907 13.3992 13.1556 12.524 14.4331C12.8862 14.4782 13.2407 14.5008 13.5878 14.5008ZM10.5549 13.9597C11.5961 12.3665 12.939 11.0138 14.5837 9.90155C13.286 8.8795 11.9205 8.36848 10.487 8.36848C9.77785 8.36848 9.16675 8.54133 8.65373 8.88702C8.05017 9.30786 7.74839 9.91658 7.74839 10.7132C7.74839 12.1861 8.6839 13.2683 10.5549 13.9597Z" fill="white"/>
<defs>
<linearGradient id="paint0_linear_853_12874" x1="32" y1="32" x2="-6.07713" y2="20.9599" gradientUnits="userSpaceOnUse">
<stop stop-color="#FB9400"/>
<stop offset="1" stop-color="#FFAB38"/>
</linearGradient>
</defs>
</svg>
