<svg width="237" height="201" viewBox="0 0 237 201" fill="none" xmlns="http://www.w3.org/2000/svg">
<g clip-path="url(#clip0_827_18247)">
<path d="M193.018 97.0272C193.018 99.8376 192.9 102.619 192.663 105.373C192.477 107.522 192.224 109.652 191.902 111.763C191.56 113.997 191.141 116.205 190.645 118.386V118.389C190.321 119.824 189.965 121.248 189.577 122.66C188.452 126.764 187.052 130.789 185.388 134.706C185.026 135.558 184.652 136.404 184.267 137.244C182.808 140.427 181.176 143.527 179.376 146.53C174.328 154.963 168.028 162.579 160.69 169.116C159.896 169.822 159.091 170.517 158.275 171.2C140.95 185.675 119.083 193.589 96.5089 193.555C43.2078 193.555 0 150.338 0 97.0272C0 43.716 43.2078 0.499875 96.5089 0.499875C118.306 0.4655 139.467 7.84498 156.518 21.4267C157.317 22.0602 158.106 22.7079 158.885 23.3698C162.687 26.5949 166.236 30.1077 169.499 33.8772H169.501C184.7 51.4006 193.052 73.829 193.018 97.0272Z" fill="#F2F2F2"/>
<path d="M28.4892 113.701C19.2956 108.228 12.3566 98.0003 13.2574 87.3376C21.6626 95.3838 32.6424 100.197 44.2541 100.926C48.7333 101.19 53.7428 101.018 57.04 104.062C59.0916 105.956 60.0466 108.808 60.2033 111.596C60.3599 114.384 59.8015 117.157 59.2459 119.894L59.4371 120.564C48.7385 120.604 37.6828 119.174 28.4892 113.701Z" fill="#E6E6E6"/>
<path d="M13.4819 87.3263C17.1655 95.3808 23.2929 102.07 30.9938 106.443C32.6493 107.37 34.4093 108.166 36.2797 108.535C38.1055 108.881 39.9907 108.732 41.7393 108.102C43.3815 107.549 44.9972 106.792 46.7454 106.647C48.5881 106.494 50.294 107.205 51.6344 108.45C53.2743 109.974 54.269 111.996 55.173 114.008C56.1768 116.241 57.184 118.577 59.1085 120.183C59.3416 120.378 59.0261 120.728 58.7933 120.534C55.445 117.739 54.8985 113.06 52.2221 109.769C50.9732 108.233 49.2541 107.065 47.2118 107.096C45.4259 107.123 43.7592 107.902 42.1013 108.477C40.3605 109.081 38.6166 109.365 36.7787 109.099C34.8987 108.827 33.1038 108.098 31.4319 107.218C27.6554 105.193 24.2208 102.587 21.2537 99.4948C17.8479 95.9848 15.0674 91.9179 13.0327 87.4701C12.9069 87.1947 13.3569 87.0527 13.4819 87.3263H13.4819Z" fill="white"/>
<path d="M28.4307 105.181C27.5217 106.373 26.2185 107.204 24.7537 107.524C23.2889 107.845 21.758 107.634 20.4343 106.929C20.1669 106.786 20.3773 106.364 20.645 106.507C21.8764 107.165 23.3024 107.362 24.6658 107.061C26.0292 106.76 27.2401 105.981 28.08 104.865C28.2628 104.623 28.6124 104.94 28.4307 105.181L28.4307 105.181Z" fill="white"/>
<path d="M40.9445 108.493C40.5619 105.451 39.0469 102.666 36.7016 100.691C36.4691 100.496 36.7846 100.145 37.0168 100.34C39.4536 102.399 41.0243 105.302 41.4155 108.468C41.4526 108.77 40.9814 108.793 40.9445 108.493V108.493Z" fill="white"/>
<path d="M18.433 95.7635C18.8809 95.3753 19.2254 94.8819 19.4356 94.3277C19.6457 93.7735 19.7149 93.1758 19.6369 92.5882C19.596 92.287 20.0673 92.2638 20.1079 92.563C20.191 93.2126 20.1138 93.8727 19.8829 94.4855C19.6521 95.0984 19.2747 95.6453 18.7838 96.0787C18.7409 96.1234 18.6826 96.1502 18.6208 96.1535C18.5589 96.1568 18.4981 96.1364 18.4508 96.0965C18.4045 96.0545 18.3767 95.996 18.3734 95.9336C18.3701 95.8713 18.3915 95.8101 18.433 95.7635V95.7635Z" fill="white"/>
<path d="M43.017 66.6804C43.0479 66.8678 43.0788 67.0551 43.1132 67.2442C43.5414 69.7607 44.1732 72.2382 45.0024 74.6523C45.0636 74.84 45.1284 75.0292 45.1948 75.2148C47.2546 81.0096 50.3723 86.3716 54.3892 91.0282C55.9893 92.8797 57.7279 94.6067 59.59 96.1944C62.1618 98.3868 65.1246 100.559 66.7735 103.39C66.9489 103.684 67.1059 103.988 67.2436 104.3L60.2406 120.279C60.2064 120.307 60.1758 120.337 60.1416 120.366L59.8912 121.016C59.7894 120.941 59.6855 120.861 59.5837 120.786C59.5245 120.743 59.4669 120.696 59.4077 120.652C59.3687 120.622 59.3298 120.592 59.2929 120.567C59.2799 120.557 59.2669 120.547 59.2576 120.539C59.2207 120.514 59.189 120.487 59.1558 120.464C58.5737 120.017 57.9937 119.566 57.4158 119.11C57.4122 119.108 57.4122 119.108 57.4101 119.103C53.0158 115.616 48.8741 111.731 45.4534 107.341C45.3506 107.209 45.244 107.076 45.1443 106.936C43.6134 104.949 42.2475 102.84 41.0602 100.63C40.4139 99.4178 39.8294 98.1737 39.309 96.9025C37.9704 93.6151 37.1572 90.1377 36.8992 86.5975C36.3857 79.5403 38.1346 72.3974 42.6668 67.0831C42.7828 66.9472 42.8974 66.8147 43.017 66.6804Z" fill="#E6E6E6"/>
<path d="M43.2035 66.8052C41.2962 75.4545 42.1622 84.4851 45.6785 92.6141C46.4424 94.3511 47.3684 96.0466 48.6395 97.4677C49.8891 98.8435 51.4843 99.8594 53.2592 100.41C54.9038 100.957 56.6494 101.325 58.1325 102.262C59.6958 103.25 60.6299 104.845 60.9504 106.646C61.3425 108.851 60.9194 111.064 60.4304 113.215C59.8875 115.602 59.2858 118.074 59.8556 120.515C59.9246 120.811 59.4617 120.901 59.3928 120.605C58.4014 116.358 60.7819 112.292 60.6259 108.053C60.5531 106.075 59.8838 104.107 58.2347 102.902C56.7925 101.848 54.9928 101.466 53.3228 100.927C51.5692 100.361 50.006 99.5373 48.6986 98.2184C47.3611 96.8693 46.3668 95.2064 45.5619 93.4966C43.7654 89.6058 42.5918 85.4566 42.084 81.2011C41.4775 76.3476 41.7055 71.4261 42.7583 66.6495C42.8236 66.3539 43.2683 66.5115 43.2035 66.8052Z" fill="white"/>
<path d="M44.3925 90.0633C42.9488 90.4682 41.4082 90.3467 40.0459 89.7203C38.6835 89.094 37.5881 88.0037 36.9552 86.6442C36.8281 86.3687 37.2502 86.1582 37.3775 86.4341C37.9645 87.7012 38.985 88.7167 40.2548 89.2973C41.5246 89.8779 42.9601 89.9854 44.3022 89.6004C44.594 89.5171 44.6826 89.9805 44.3925 90.0633H44.3925Z" fill="white"/>
<path d="M52.3887 100.243C53.9145 97.5836 54.382 94.4472 53.6981 91.4589C53.6301 91.1628 54.0931 91.0729 54.161 91.3686C54.8669 94.4797 54.3737 97.7426 52.7799 100.506C52.6278 100.769 52.2374 100.504 52.3887 100.243Z" fill="white"/>
<path d="M42.0782 76.523C42.6695 76.4828 43.2416 76.2963 43.7431 75.9803C44.2445 75.6643 44.6597 75.2287 44.9512 74.7126C45.0999 74.4475 45.4901 74.7127 45.3423 74.9761C45.0176 75.5448 44.5586 76.0253 44.0053 76.3756C43.452 76.726 42.8214 76.9355 42.1685 76.9859C42.1073 76.9958 42.0447 76.9821 41.9933 76.9475C41.9419 76.9129 41.9057 76.86 41.8919 76.7996C41.8802 76.7383 41.8932 76.6748 41.9281 76.623C41.963 76.5712 42.0169 76.5353 42.0782 76.523V76.523Z" fill="white"/>
<path d="M66.8523 22.8722L78.6646 161.176L55.04 162.952V24.6318C57.8551 22.7687 61.8961 22.4772 66.8523 22.8722Z" fill="#CCCCCC"/>
<path d="M125.16 22.8722L113.348 161.176L136.972 162.952V24.6318C134.157 22.7687 130.116 22.4772 125.16 22.8722Z" fill="#CCCCCC"/>
<path d="M133.435 168.669H58.3258C57.1215 168.667 55.9668 168.188 55.1152 167.336C54.2636 166.485 53.7846 165.33 53.7832 164.125V26.6617C53.7846 25.4571 54.2636 24.3022 55.1152 23.4504C55.9668 22.5987 57.1215 22.1195 58.3258 22.1182H133.435C134.639 22.1195 135.794 22.5987 136.645 23.4504C137.497 24.3022 137.976 25.4571 137.977 26.6617V164.125C137.976 165.33 137.497 166.485 136.645 167.336C135.794 168.188 134.639 168.667 133.435 168.669ZM58.3258 23.6264C57.5213 23.6273 56.7499 23.9474 56.181 24.5164C55.6121 25.0854 55.292 25.8569 55.2912 26.6617V164.125C55.292 164.93 55.6121 165.701 56.181 166.27C56.7499 166.84 57.5212 167.16 58.3258 167.161H133.435C134.239 167.16 135.01 166.84 135.579 166.27C136.148 165.701 136.468 164.93 136.469 164.125V26.6617C136.468 25.8569 136.148 25.0854 135.579 24.5164C135.01 23.9474 134.239 23.6273 133.435 23.6264L58.3258 23.6264Z" fill="#CCCCCC"/>
<path d="M137.223 44.9932H54.5371V46.5014H137.223V44.9932Z" fill="#CCCCCC"/>
<path d="M137.223 70.1304H54.5371V71.6386H137.223V70.1304Z" fill="#CCCCCC"/>
<path d="M81.3706 22.8723H79.8623V91.4972H81.3706V22.8723Z" fill="#CCCCCC"/>
<path d="M111.9 22.8723H110.392V91.4972H111.9V22.8723Z" fill="#CCCCCC"/>
<path d="M146.649 172.816H47.6266C45.8269 172.816 44.1009 172.101 42.8283 170.828C41.5557 169.556 40.8408 167.829 40.8408 166.029C40.8408 164.229 41.5557 162.503 42.8283 161.23C44.1009 159.957 45.8269 159.242 47.6266 159.242H146.649C148.448 159.242 150.174 159.957 151.447 161.23C152.72 162.503 153.435 164.229 153.435 166.029C153.435 167.829 152.72 169.556 151.447 170.828C150.174 172.101 148.448 172.816 146.649 172.816Z" fill="#CCCCCC"/>
<path d="M137.223 87.978H55.04V93.0055H137.223V87.978Z" fill="#CCCCCC"/>
<path d="M81.6036 103.978L81.4993 103.928C75.8969 101.221 68.5604 101.223 57.7105 103.936L57.5947 103.965L57.56 103.851C56.4122 100.087 55.112 95.8236 57.5546 93.7261C57.5888 87.5711 62.9868 82.5732 69.6171 82.5732C76.246 82.5732 81.6433 87.5685 81.6795 93.7219C85.313 96.5005 83.5813 100.607 81.6623 103.878L81.6036 103.978Z" fill="#2F2E41"/>
<path d="M116.039 90.7985C115.938 91.2972 115.73 91.7679 115.428 92.1773C115.126 92.5867 114.738 92.9249 114.291 93.1681C113.844 93.4113 113.349 93.5535 112.842 93.5848C112.334 93.6161 111.826 93.5356 111.352 93.3491L91.5536 113.249L89.7871 107.07L109.451 88.5903C109.817 87.8159 110.454 87.2026 111.242 86.8667C112.03 86.5308 112.913 86.4956 113.725 86.7678C114.537 87.04 115.221 87.6006 115.648 88.3435C116.074 89.0864 116.213 89.9599 116.039 90.7985L116.039 90.7985Z" fill="#FFB6B6"/>
<path d="M67.1061 109.956C67.1061 109.956 65.3098 114.028 69.7421 116.538C74.1744 119.049 89.6653 115.58 92.1789 115.096C94.6925 114.612 104.08 100.56 104.08 100.56L102.753 93.6682L90.3023 104.478L67.1061 109.956Z" fill="#FB9400"/>
<path d="M63.837 132.471L64.0883 137.247C64.0883 137.247 63.3465 141.478 63.9566 142.391C64.5621 143.299 81.0845 143.414 81.0845 143.414C81.0845 143.414 82.1762 137.528 83.1165 132.375L63.837 132.471Z" fill="#FFB6B6"/>
<path d="M111.34 195.621L114.795 194.923L113.806 180.969L108.708 181.999L111.34 195.621Z" fill="#FFB6B6"/>
<path d="M116.289 177.461L119.5 176.017L115.334 162.665L110.595 164.797L116.289 177.461Z" fill="#FFB6B6"/>
<path d="M119.085 169.938L113.039 173.362L98.1275 149.396C87.6594 156.45 77.423 159.828 67.1037 161.63C63.6148 162.252 60.0577 161.937 59.3879 158.385C59.3566 158.219 59.3316 158.052 59.313 157.884C58.901 154.005 63.7258 149.032 64.3392 144.286L77.5439 143.493L79.1722 145.581L94.4431 136.191C97.5141 134.302 101.553 135.324 103.465 138.472C103.566 138.638 103.659 138.809 103.746 138.983L119.085 169.938Z" fill="#2F2E41"/>
<path d="M115.385 186.06L108.466 186.704L95.9217 161.043C83.4823 163.183 71.7467 163.868 61.596 161.28C58.1592 160.416 56.0584 156.866 56.9038 153.352C56.9433 153.188 56.989 153.025 57.0408 152.865C58.2557 149.157 61.4357 146.534 63.9412 142.457L82.2419 142.735L80.1978 149.789L97.9757 147.488C101.551 147.025 104.816 149.614 105.269 153.269C105.292 153.462 105.308 153.656 105.315 153.851L115.385 186.06Z" fill="#2F2E41"/>
<path d="M70.9819 100.33C75.086 100.33 78.413 97.002 78.413 92.8972C78.413 88.7923 75.086 85.4646 70.9819 85.4646C66.8778 85.4646 63.5508 88.7923 63.5508 92.8972C63.5508 97.002 66.8778 100.33 70.9819 100.33Z" fill="#FFB6B6"/>
<path d="M66.6257 103.013L73.4394 103.815C73.7267 103.849 73.9964 103.971 74.2107 104.165C74.4251 104.36 74.5735 104.616 74.6353 104.899L75.7188 109.858L82.4736 117.814C82.4736 117.814 84.8992 122.363 83.9896 127.519C83.08 132.674 82.6803 136.505 82.6803 136.505C82.6803 136.505 64.5607 143.3 63.9543 142.39C63.3479 141.48 63.1511 137.348 63.1511 137.348L60.7256 110.358C60.7256 110.358 63.4544 105.809 64.9704 105.809C65.9488 105.776 65.8232 103.574 66.6257 103.013Z" fill="#FB9400"/>
<path d="M82.8652 138.164C83.8208 138.164 84.5956 137.234 84.5956 136.087C84.5956 134.941 83.8208 134.011 82.8652 134.011C81.9095 134.011 81.1348 134.941 81.1348 136.087C81.1348 137.234 81.9095 138.164 82.8652 138.164Z" fill="#FB9400"/>
<path d="M109.627 192.028L114.893 189.389L115.886 191.704L122.545 193.051C122.874 193.117 123.173 193.287 123.398 193.536C123.624 193.784 123.764 194.098 123.799 194.432C123.833 194.766 123.76 195.102 123.59 195.391C123.42 195.681 123.162 195.908 122.853 196.04L116.419 198.799L114.328 196.983L114.877 199.46L112.451 200.5L109.627 192.028Z" fill="#2F2E41"/>
<path d="M114.781 176.35L120 173.618L121.033 175.917L127.715 177.146C128.045 177.206 128.347 177.371 128.577 177.615C128.807 177.86 128.953 178.171 128.993 178.505C129.033 178.838 128.966 179.175 128.801 179.467C128.636 179.76 128.382 179.991 128.076 180.129L121.691 183L119.569 181.222L120.161 183.689L117.754 184.771L114.781 176.35Z" fill="#2F2E41"/>
<path d="M66.7362 90.5659C64.773 90.5691 62.8569 89.9645 61.2509 88.835L61.1973 88.7974V88.732C61.1994 86.8326 61.9548 85.0117 63.2976 83.6686C64.6404 82.3255 66.461 81.57 68.36 81.5679H71.3759C73.275 81.57 75.0956 82.3255 76.4384 83.6686C77.7812 85.0117 78.5366 86.8326 78.5387 88.732C78.5367 89.1667 78.3651 89.5835 78.0604 89.8936C77.7558 90.2036 77.3421 90.3824 76.9076 90.392L66.9057 90.5644C66.8493 90.5654 66.7926 90.5659 66.7362 90.5659Z" fill="#2F2E41"/>
<path d="M79.0423 87.3562C80.0041 86.8008 80.1649 85.2783 79.4014 83.9558C78.638 82.6332 77.2394 82.0112 76.2776 82.5666C75.3158 83.122 75.155 84.6444 75.9185 85.967C76.6819 87.2896 78.0805 87.9116 79.0423 87.3562Z" fill="#2F2E41"/>
<path d="M64.0019 85.8808C65.0816 84.8008 65.3203 83.2886 64.535 82.5032C63.7498 81.7178 62.2379 81.9566 61.1582 83.0365C60.0784 84.1165 59.8397 85.6286 60.625 86.4141C61.4102 87.1995 62.9221 86.9607 64.0019 85.8808Z" fill="#2F2E41"/>
<path d="M129.769 153.838H122.352C122.184 153.837 122.019 153.874 121.867 153.944C121.715 154.014 121.581 154.117 121.472 154.244C121.199 154.194 120.917 154.209 120.651 154.289C120.384 154.369 120.14 154.51 119.939 154.703C119.738 154.895 119.586 155.132 119.494 155.395C119.402 155.657 119.374 155.938 119.412 156.214C119.45 156.489 119.552 156.752 119.711 156.98C119.87 157.209 120.081 157.396 120.326 157.527C120.572 157.658 120.845 157.729 121.123 157.734C121.401 157.739 121.676 157.678 121.926 157.556L122.541 159.555C122.614 159.792 122.761 159.999 122.961 160.147C123.16 160.294 123.401 160.373 123.649 160.373H128.472C128.72 160.373 128.961 160.294 129.16 160.147C129.36 159.999 129.506 159.792 129.579 159.555L130.877 155.338C130.93 155.165 130.942 154.981 130.912 154.802C130.881 154.623 130.809 154.454 130.701 154.308C130.594 154.162 130.453 154.044 130.291 153.962C130.129 153.88 129.95 153.838 129.769 153.838ZM121.16 157.231C120.826 157.231 120.507 157.099 120.271 156.863C120.035 156.627 119.903 156.308 119.903 155.974C119.903 155.641 120.035 155.321 120.271 155.086C120.507 154.85 120.826 154.718 121.16 154.718C121.182 154.718 121.204 154.723 121.227 154.724C121.177 154.927 121.183 155.139 121.244 155.338L121.775 157.063C121.588 157.172 121.376 157.23 121.16 157.231Z" fill="#3F3D56"/>
<path d="M96.6478 148.381C96.1413 148.428 95.6307 148.363 95.1519 148.191C94.6732 148.019 94.2379 147.745 93.8768 147.386C93.5157 147.028 93.2375 146.595 93.0619 146.117C92.8863 145.64 92.8174 145.13 92.8603 144.623L68.1201 131.362L73.5314 127.897L96.8726 141.436C97.7194 141.564 98.4896 141.999 99.0373 142.657C99.5851 143.315 99.8723 144.152 99.8446 145.008C99.8169 145.864 99.4762 146.681 98.887 147.302C98.2978 147.924 97.5011 148.308 96.6478 148.381Z" fill="#FFB6B6"/>
<path d="M64.2592 106.993C64.2592 106.993 59.8443 106.44 58.7112 111.408C57.5781 116.375 65.3451 130.222 66.5302 132.491C67.7153 134.761 83.8674 139.724 83.8674 139.724L90.0869 136.475L76.1608 127.647L64.2592 106.993Z" fill="#FB9400"/>
<path d="M95.3779 86.4697H96.8858C97.619 86.4697 98.3222 86.7611 98.8407 87.2796C99.3591 87.7982 99.6504 88.5015 99.6504 89.2348H92.6133C92.6133 88.5015 92.9046 87.7982 93.423 87.2796C93.9415 86.7611 94.6446 86.4697 95.3779 86.4697Z" fill="#CCCCCC"/>
<path d="M47.5613 34.8793C55.812 34.8793 62.5006 28.1895 62.5006 19.9372C62.5006 11.6849 55.812 4.99512 47.5613 4.99512C39.3106 4.99512 32.6221 11.6849 32.6221 19.9372C32.6221 28.1895 39.3106 34.8793 47.5613 34.8793Z" fill="#FF6584"/>
<path d="M93.302 19.1583C89.3484 15.01 84.7566 11.2257 79.3208 9.22593C77.8067 8.66652 76.2367 8.27191 74.638 8.04892C74.6252 8.04716 74.613 8.04977 74.6002 8.04873C74.5742 8.04203 74.5478 8.03685 74.5212 8.03322C72.2853 7.74832 70.0158 7.88536 67.8304 8.43724C66.7617 8.70547 65.7191 9.06874 64.7151 9.5227C63.7075 10.0143 62.7312 10.5677 61.7918 11.1797C59.8035 12.3701 57.6142 13.187 55.3321 13.59C54.1866 13.7963 53.0264 13.9102 51.8627 13.9306C50.8529 13.9508 49.9007 13.9859 48.944 14.3508C47.922 14.7352 47.0041 15.3531 46.2633 16.1553C45.5225 16.9576 44.9795 17.9219 44.6775 18.9713C44.6543 19.0647 44.6613 19.1632 44.6976 19.2524C44.7339 19.3416 44.7976 19.417 44.8795 19.4676C45.1382 19.653 45.3905 19.8633 45.6624 20.0285C45.9043 20.1392 46.1627 20.2097 46.4273 20.2371C46.8596 20.3283 47.2924 20.4169 47.7258 20.5028C49.3224 20.8192 50.9256 21.0993 52.5355 21.3431C55.7931 21.8363 59.0682 22.1837 62.3609 22.3854C68.9572 22.785 75.5761 22.586 82.1364 21.7909C85.8234 21.3443 89.4853 20.7107 93.1081 19.8928C93.1815 19.8714 93.248 19.8314 93.3014 19.7766C93.3547 19.7219 93.393 19.6543 93.4125 19.5803C93.432 19.5064 93.4321 19.4288 93.4127 19.3548C93.3934 19.2809 93.3552 19.2132 93.302 19.1583Z" fill="#E6E6E6"/>
<path d="M48.2701 29.1488C46.7559 28.5894 45.1859 28.1948 43.5873 27.9718C43.5744 27.97 43.5622 27.9726 43.5494 27.9716C43.5234 27.9649 43.4971 27.9597 43.4704 27.9561C41.2345 27.6712 38.965 27.8082 36.7796 28.3601C35.7109 28.6283 34.6683 28.9916 33.6643 29.4456C32.6567 29.9372 31.6805 30.4906 30.7411 31.1025C28.7527 32.293 26.5635 33.1099 24.2814 33.5129C23.1359 33.7191 21.9757 33.833 20.8119 33.8534C19.8022 33.8737 18.8499 33.9088 17.8932 34.2736C16.8713 34.658 15.9533 35.276 15.2125 36.0782C14.4718 36.8804 13.9287 37.8447 13.6268 38.8941C13.6035 38.9876 13.6105 39.086 13.6468 39.1752C13.6831 39.2644 13.7468 39.3398 13.8287 39.3904C14.0875 39.5758 14.3398 39.7861 14.6117 39.9513C14.8535 40.062 15.1119 40.1325 15.3765 40.1599C15.8088 40.2512 16.2416 40.3397 16.675 40.4256C18.2716 40.742 19.8749 41.0221 21.4847 41.2659C24.7423 41.7591 28.0174 42.1066 31.3101 42.3082C37.9064 42.7078 44.5253 42.5089 51.0857 41.7137C54.7726 41.2671 58.4346 40.6336 62.0573 39.8157C62.1307 39.7942 62.1973 39.7542 62.2506 39.6994C62.3039 39.6447 62.3422 39.5771 62.3617 39.5032C62.3812 39.4293 62.3813 39.3516 62.3619 39.2776C62.3426 39.2037 62.3044 39.136 62.2512 39.0811C58.2976 34.9329 53.7059 31.1486 48.2701 29.1488Z" fill="#E6E6E6"/>
<path d="M156.004 140.54L144.515 125.445L135.45 130.571L154.659 153.386L156.004 140.54Z" fill="#3F3D56"/>
<path d="M182.467 116.001C182.722 122.327 183.702 128.603 185.387 134.706C185.025 135.558 184.652 136.404 184.266 137.245C182.808 140.427 181.175 143.527 179.375 146.53C174.328 154.963 168.027 162.579 160.689 169.116C159.895 169.823 159.09 170.517 158.274 171.2C153.622 164.785 151.111 157.706 150.119 150.422C149.993 149.497 149.89 148.561 149.812 147.631V147.626C149.621 145.366 149.56 143.097 149.629 140.829C149.631 140.648 149.636 140.465 149.644 140.281C149.732 137.858 149.95 135.43 150.28 133.024V133.022C150.317 132.745 150.355 132.469 150.398 132.192C150.518 131.362 150.654 130.533 150.802 129.708C151.665 124.953 152.87 120.266 154.406 115.684V115.682C154.449 115.549 154.492 115.418 154.54 115.287C154.705 114.789 154.874 114.297 155.047 113.804C155.058 113.765 155.071 113.728 155.087 113.691C155.311 113.047 155.54 112.409 155.774 111.775C155.836 111.6 155.902 111.424 155.97 111.248C156.233 110.541 156.502 109.84 156.776 109.149C156.862 108.927 156.95 108.706 157.038 108.488C157.106 108.319 157.171 108.151 157.241 107.985V107.982C157.641 106.994 158.046 106.026 158.455 105.076C159.604 102.407 160.785 99.8956 161.936 97.5804L161.939 97.5779C166.716 87.993 171.059 81.769 171.059 81.769L187.368 87.0479C185.422 90.4992 183.917 95.5895 183.093 101.595C182.457 106.368 182.248 111.188 182.467 115.999L182.467 116.001Z" fill="#3F3D56"/>
<path d="M155.362 114.465C155.266 114.241 155.158 114.023 155.047 113.804C154.474 112.694 153.736 111.677 152.858 110.787C152.728 110.654 152.592 110.521 152.451 110.395C150.937 109.001 149.096 108.01 147.099 107.516C145.101 107.021 143.01 107.038 141.021 107.565L141.011 107.57L140.935 107.59L140.953 107.675C141.028 108.074 141.138 108.465 141.28 108.844C141.318 108.947 141.36 109.045 141.403 109.144C141.421 109.189 141.443 109.229 141.463 109.274C141.463 109.274 141.461 109.277 141.466 109.277C141.466 109.279 141.468 109.282 141.468 109.284C141.516 109.377 141.561 109.473 141.612 109.563C141.508 109.465 141.41 109.365 141.315 109.262C141.222 109.166 141.137 109.066 141.051 108.965C140.758 108.623 140.493 108.259 140.259 107.874L140.219 107.806L140.149 107.834C139.2 108.163 138.296 108.606 137.455 109.154L137.364 109.214C136.722 109.636 135.998 109.917 135.24 110.041C134.482 110.165 133.706 110.128 132.963 109.933C131.792 109.631 130.571 109.576 129.377 109.771C128.184 109.966 127.043 110.407 126.029 111.067C125.358 111.505 124.75 112.034 124.225 112.64C124.18 112.693 124.134 112.748 124.089 112.801C123.994 112.917 123.903 113.035 123.815 113.155C122.87 114.418 122.291 115.917 122.139 117.487L122.134 117.544L122.182 117.577C123.032 118.16 123.994 118.561 125.006 118.754C124.37 118.842 123.726 118.858 123.086 118.801H123.084C122.794 118.777 122.505 118.737 122.219 118.681L122.166 118.671H122.164L122.099 118.658L122.109 118.779C122.184 120.315 122.667 121.803 123.509 123.09L123.534 123.125C123.543 123.138 123.551 123.151 123.559 123.165C123.915 123.711 124.212 124.293 124.444 124.902C125.031 126.416 125.16 128.069 124.815 129.656C124.425 131.353 124.555 133.128 125.188 134.75C125.821 136.372 126.928 137.766 128.364 138.75C129.626 139.619 131.097 140.135 132.624 140.246C132.833 140.264 133.044 140.274 133.255 140.274C134.464 140.277 135.659 140.028 136.766 139.542L136.806 139.527L136.816 139.482C137.029 138.795 137.328 138.138 137.706 137.526C137.582 138.008 137.52 138.504 137.52 139.002V139.168L137.663 139.085C137.786 139.012 137.912 138.934 138.025 138.861C138.704 138.417 139.319 137.883 139.852 137.272C140.061 137.031 140.272 136.797 140.493 136.563L140.496 136.561C140.925 136.103 141.38 135.656 141.853 135.229C142.858 134.326 143.934 133.504 145.07 132.773C146.205 132.044 147.392 131.398 148.621 130.842H148.624C148.762 130.777 148.902 130.714 149.041 130.654C149.653 130.387 150.242 130.071 150.803 129.708C150.823 129.696 150.84 129.686 150.858 129.673C153.287 128.082 155.074 125.68 155.898 122.895C156.723 120.11 156.533 117.123 155.362 114.465L155.362 114.465Z" fill="#FB9400"/>
<path opacity="0.15" d="M125.23 133.225C125.161 133.53 125.109 133.839 125.074 134.151C124.606 132.672 124.538 131.095 124.878 129.582C124.93 129.35 124.969 129.116 125 128.88C125.464 130.282 125.544 131.782 125.23 133.225Z" fill="black"/>
<path opacity="0.15" d="M125.421 122.321C124.676 122.424 123.921 122.428 123.175 122.331C122.98 121.963 122.811 121.581 122.671 121.189C123.501 121.749 124.437 122.134 125.421 122.321Z" fill="black"/>
<path opacity="0.15" d="M123.115 118.721C122.84 119.423 122.658 120.159 122.572 120.909C122.343 120.195 122.207 119.454 122.169 118.705L122.163 118.584L122.282 118.607C122.557 118.659 122.836 118.697 123.115 118.721Z" fill="black"/>
<path opacity="0.15" d="M126.094 110.992C127.107 110.332 128.247 109.89 129.44 109.694C130.633 109.499 131.854 109.554 133.024 109.857C133.767 110.053 134.544 110.091 135.302 109.967C136.061 109.844 136.785 109.561 137.427 109.139L137.518 109.079C138.358 108.53 139.263 108.086 140.211 107.756L140.283 107.731L140.323 107.797C140.698 108.417 141.152 108.985 141.674 109.487C141.357 108.896 141.135 108.259 141.016 107.599L140.999 107.512L141.085 107.49C142.951 106.996 144.907 106.95 146.794 107.356C148.681 107.762 150.445 108.609 151.943 109.827C153.441 111.045 154.629 112.6 155.411 114.365C156.194 116.13 156.548 118.055 156.445 119.983C156.049 118.411 155.345 116.934 154.374 115.636C153.403 114.338 152.185 113.246 150.789 112.423C149.393 111.6 147.847 111.062 146.242 110.84C144.637 110.619 143.003 110.718 141.437 111.133L141.351 111.155L141.368 111.242C141.487 111.902 141.709 112.54 142.026 113.13C141.504 112.628 141.05 112.06 140.675 111.44L140.635 111.374L140.563 111.399C139.615 111.729 138.711 112.173 137.87 112.722L137.78 112.782C137.137 113.204 136.413 113.487 135.655 113.61C134.896 113.734 134.12 113.696 133.377 113.5C131.431 112.995 129.37 113.181 127.546 114.025C125.722 114.87 124.248 116.321 123.374 118.132C122.985 117.945 122.608 117.734 122.245 117.501L122.195 117.47L122.201 117.412C122.326 116.118 122.741 114.869 123.415 113.757C124.089 112.646 125.005 111.701 126.094 110.992Z" fill="black"/>
<path d="M219.528 46.7627L219.289 46.6043L219.115 46.8306C217.773 48.5207 216.706 50.4115 215.951 52.4337C216.055 50.1041 216.463 47.798 217.163 45.5737L217.238 45.3399L217.022 45.2167C214.21 43.6241 211.214 42.3815 208.1 41.5165L207.761 41.426C205.374 40.7711 203.153 39.6204 201.241 38.049C199.329 36.4776 197.77 34.5208 196.665 32.3062C194.097 27.2236 190.04 23.0451 185.037 20.3282C180.033 17.6114 174.32 16.4854 168.659 17.1006H168.657C168.597 17.1057 168.534 17.1132 168.473 17.1207C168.37 17.1308 168.27 17.1434 168.169 17.1559C167.963 17.1836 167.762 17.2112 167.561 17.2414C167.39 17.2665 167.217 17.2942 167.046 17.3244C166.955 17.3369 166.867 17.352 166.779 17.3696C166.691 17.3847 166.601 17.3998 166.513 17.4174H166.511C164.823 17.7366 163.169 18.2121 161.569 18.8376H161.567V18.8401L161.162 18.9985C160.745 19.1694 160.331 19.3504 159.921 19.5415C159.828 19.5842 159.737 19.6294 159.644 19.6722C159.619 19.6847 159.592 19.6973 159.566 19.7124C159.303 19.8381 159.041 19.9688 158.782 20.107C158.745 20.1246 158.707 20.1448 158.669 20.1649L158.428 20.2931C157.898 20.5796 157.377 20.8838 156.865 21.2055C156.822 21.2307 156.782 21.2558 156.739 21.2835C156.694 21.3136 156.646 21.3438 156.601 21.374C156.573 21.3891 156.545 21.4092 156.518 21.4268C156.44 21.4745 156.365 21.5248 156.289 21.5776C156.138 21.6756 155.988 21.7762 155.839 21.8792C155.686 21.9823 155.535 22.0904 155.384 22.1985L155.234 22.3066L155.261 22.4926C155.286 22.6459 155.309 22.7993 155.337 22.9501C155.362 23.1009 155.387 23.2492 155.415 23.3975C155.457 23.6464 155.505 23.8927 155.553 24.1315C155.585 24.2899 155.616 24.4458 155.651 24.5991C155.683 24.7575 155.719 24.9158 155.756 25.0742C155.829 25.401 155.907 25.7177 155.99 26.0294C156.03 26.1853 156.073 26.3411 156.118 26.4944C156.143 26.5875 156.169 26.6805 156.196 26.771C156.216 26.8338 156.236 26.8966 156.256 26.9595C156.262 26.9796 156.267 27.0022 156.274 27.0248C156.28 27.0461 156.286 27.0671 156.294 27.0877C156.322 27.1807 156.349 27.2712 156.377 27.3592C156.392 27.4069 156.407 27.4547 156.425 27.4999C156.46 27.608 156.498 27.7186 156.535 27.8242C156.576 27.9449 156.618 28.0655 156.661 28.1837C156.671 28.2138 156.681 28.2415 156.691 28.2717C156.699 28.2943 156.706 28.3169 156.716 28.3395C156.726 28.3647 156.737 28.3923 156.747 28.4174C156.789 28.5306 156.832 28.6462 156.877 28.7593C156.892 28.7995 156.907 28.8423 156.925 28.8825C157.332 29.9066 157.833 30.891 158.42 31.8236C157.769 31.2655 157.143 30.6739 156.54 30.0489C155.61 29.0824 154.754 28.048 153.977 26.9545C153.914 26.869 153.851 26.781 153.794 26.693C153.675 26.5246 153.56 26.3562 153.447 26.1853C153.326 26.0093 153.21 25.8258 153.097 25.6448C153.022 25.5241 152.947 25.401 152.874 25.2803C152.801 25.1647 152.733 25.0516 152.668 24.9359L152.472 24.5991H152.469V24.6016L152.193 24.8731C152.082 24.9812 151.971 25.0893 151.863 25.1973C148.485 28.5967 146.039 32.8081 144.758 37.4267L144.721 37.5649L144.683 37.7082C144.61 37.9646 144.537 38.2135 144.459 38.4673V38.4699C144.384 38.7212 144.303 38.9726 144.218 39.2189C144.14 39.4527 144.06 39.684 143.974 39.9153C143.947 39.9932 143.916 40.0711 143.884 40.149C143.831 40.2999 143.773 40.4482 143.715 40.599C143.688 40.6669 143.66 40.7372 143.632 40.8051C143.565 40.971 143.497 41.1369 143.429 41.3003C143.419 41.3255 143.406 41.3531 143.394 41.3782C143.374 41.4285 143.351 41.4788 143.331 41.5266C143.278 41.6472 143.223 41.7704 143.17 41.891C143.132 41.969 143.097 42.0494 143.062 42.1273C143.047 42.1625 143.029 42.1977 143.014 42.2329C142.921 42.434 142.826 42.6326 142.725 42.8287C142.612 43.0599 142.496 43.2912 142.373 43.5174C142.265 43.7286 142.152 43.9347 142.034 44.1409C141.83 44.5053 141.617 44.8673 141.396 45.2192C141.31 45.355 141.225 45.4907 141.137 45.6265C141.117 45.6591 141.097 45.6918 141.076 45.722C141.004 45.8401 140.928 45.9533 140.85 46.0689C140.797 46.1468 140.745 46.2247 140.692 46.3001C140.604 46.4359 140.511 46.5666 140.415 46.6948C140.39 46.735 140.363 46.7727 140.335 46.8104C140.194 47.0065 140.054 47.1975 139.91 47.3886C139.905 47.3911 139.905 47.3936 139.903 47.3961C139.898 47.3961 139.898 47.3986 139.895 47.4012C139.832 47.4841 139.77 47.5671 139.704 47.6475C139.619 47.7657 139.526 47.8813 139.433 47.9944C139.282 48.1854 139.124 48.379 138.963 48.5675C138.958 48.5726 138.955 48.5776 138.95 48.5801C138.118 49.5587 137.215 50.4761 136.251 51.3251C136.233 51.3402 136.221 51.3553 136.203 51.3678C136.068 51.486 135.932 51.6041 135.791 51.7198C135.733 51.7675 135.675 51.8153 135.618 51.863C135.522 51.9435 135.424 52.0239 135.329 52.0968C135.317 52.1084 135.305 52.1185 135.291 52.127C135.206 52.1974 135.123 52.2627 135.037 52.3281C134.934 52.411 134.831 52.489 134.725 52.5669C134.228 52.9439 133.717 53.3001 133.192 53.6352C133.114 53.688 133.032 53.7408 132.951 53.7911C132.903 53.8212 132.856 53.8514 132.81 53.8765C132.619 53.9947 132.428 54.1103 132.237 54.2209C132.046 54.334 131.85 54.4421 131.657 54.5477C131.242 54.7739 130.832 55.0102 130.433 55.2566C130.232 55.3823 130.031 55.508 129.832 55.6362C129.043 56.149 128.283 56.6978 127.553 57.2826C126.822 57.8679 126.122 58.4895 125.454 59.1453C125.371 59.2258 125.288 59.3087 125.205 59.3942C125.039 59.5576 124.879 59.7235 124.725 59.8894C124.479 60.1433 124.243 60.4047 124.009 60.6686C122.776 62.0674 121.685 63.5847 120.752 65.1984C120.283 66.0042 119.857 66.834 119.475 67.6845C119.186 68.3204 118.922 68.9715 118.683 69.6301C118.525 70.07 118.377 70.5141 118.239 70.9624C118.171 71.1861 118.105 71.4123 118.043 71.6386C117.829 72.4053 117.65 73.1795 117.505 73.9562C117.387 74.5796 117.291 75.2039 117.218 75.829C117.18 76.1432 117.15 76.4574 117.123 76.7691C117.058 77.5352 117.025 78.3021 117.023 79.0697C117.019 81.3726 117.299 83.6672 117.857 85.9015C117.98 86.3942 118.116 86.8844 118.266 87.372C118.342 87.6159 118.422 87.8572 118.502 88.0985C118.706 88.7018 118.931 89.2992 119.178 89.8908C119.327 90.2452 119.483 90.5971 119.646 90.9466C120.684 93.1679 122.009 95.2434 123.587 97.1203C123.846 97.4295 124.113 97.7336 124.388 98.0328C124.391 98.0328 124.388 98.0353 124.388 98.0353C125.072 98.7813 125.796 99.4896 126.557 100.157H126.56C126.864 100.426 127.173 100.686 127.487 100.939C127.49 100.936 127.49 100.939 127.49 100.939C127.806 101.195 128.126 101.441 128.452 101.68C128.616 101.798 128.782 101.916 128.95 102.035C129.279 102.268 129.615 102.494 129.958 102.711H129.96C130.302 102.932 130.649 103.143 131.001 103.344C131.707 103.749 132.431 104.129 133.175 104.473L133.3 104.531L133.429 104.473C134.621 103.936 135.851 103.485 137.108 103.123C137.384 103.043 137.663 102.97 137.94 102.899C138.639 102.726 139.342 102.58 140.051 102.462C139.361 102.808 138.694 103.201 138.056 103.636C137.56 103.97 137.073 104.335 136.583 104.737C136.419 104.87 136.256 105.008 136.093 105.149L135.686 105.501L136.196 105.67C136.382 105.73 136.568 105.79 136.754 105.845C137.007 105.926 137.259 105.999 137.505 106.067C138.043 106.218 138.584 106.351 139.129 106.466C139.262 106.494 139.393 106.522 139.526 106.549C139.785 106.6 140.046 106.65 140.307 106.695C140.318 106.698 140.329 106.699 140.34 106.7C140.612 106.745 140.885 106.788 141.157 106.826C141.662 106.899 142.167 106.957 142.672 106.999C142.728 107.007 142.783 107.009 142.841 107.012C142.964 107.022 143.085 107.032 143.208 107.039C143.479 107.057 143.753 107.07 144.027 107.08C144.047 107.08 144.065 107.082 144.085 107.082C144.223 107.087 144.361 107.092 144.5 107.095C144.5 107.095 144.5 107.097 144.502 107.095C144.64 107.097 144.778 107.1 144.917 107.1H145.681C145.824 107.1 145.967 107.102 146.113 107.102C146.314 107.102 146.518 107.105 146.719 107.107C146.772 107.107 146.827 107.11 146.882 107.11C147.204 107.115 147.525 107.122 147.847 107.13C147.867 107.13 147.887 107.132 147.907 107.132C148.229 107.143 148.551 107.153 148.873 107.168C148.943 107.17 149.013 107.173 149.086 107.178C149.395 107.19 149.704 107.205 150.014 107.223C150.102 107.228 150.192 107.236 150.283 107.241C150.516 107.253 150.752 107.268 150.986 107.286C151.124 107.293 151.26 107.303 151.398 107.316C151.956 107.359 152.512 107.406 153.07 107.462C153.256 107.477 153.442 107.497 153.628 107.517C154.125 107.57 154.625 107.628 155.126 107.691C155.349 107.716 155.573 107.746 155.797 107.776C155.822 107.779 155.847 107.781 155.872 107.786C156.148 107.824 156.422 107.861 156.699 107.902C156.88 107.927 157.061 107.954 157.242 107.982C157.428 108.01 157.614 108.037 157.8 108.07C157.9 108.085 158.001 108.103 158.104 108.12C158.345 108.158 158.589 108.198 158.833 108.244C158.855 108.246 158.876 108.249 158.898 108.254C159.416 108.344 159.936 108.44 160.454 108.543C160.758 108.601 161.059 108.661 161.361 108.724C161.597 108.771 161.833 108.822 162.07 108.872C162.11 108.88 162.15 108.89 162.19 108.9C162.199 108.902 162.209 108.904 162.218 108.905C162.575 108.983 162.934 109.063 163.291 109.148C164.53 109.435 165.768 109.753 167.003 110.104C167.287 110.182 167.571 110.265 167.855 110.348C167.976 110.383 168.094 110.418 168.212 110.453C168.458 110.526 168.702 110.599 168.948 110.677C169.165 110.742 169.383 110.81 169.599 110.88C169.735 110.923 169.871 110.966 170.007 111.011C170.218 111.077 170.429 111.144 170.637 111.217C170.816 111.273 170.992 111.33 171.168 111.393C171.419 111.476 171.673 111.562 171.924 111.652C171.997 111.677 172.072 111.702 172.145 111.73C172.452 111.836 172.759 111.944 173.065 112.057C173.364 112.165 173.663 112.276 173.96 112.386C174.166 112.464 174.372 112.54 174.576 112.62C174.804 112.708 175.033 112.796 175.259 112.886C175.586 113.015 175.915 113.145 176.242 113.279C176.543 113.399 176.843 113.522 177.144 113.651C177.199 113.673 177.257 113.696 177.313 113.721C177.574 113.829 177.835 113.942 178.094 114.055C178.263 114.126 178.428 114.199 178.594 114.271C179.318 114.588 180.041 114.916 180.763 115.254H180.766C181.218 115.468 181.678 115.672 182.141 115.865C182.249 115.91 182.357 115.956 182.467 115.998C182.651 116.076 182.837 116.149 183.023 116.225C183.143 116.272 183.264 116.32 183.387 116.365C183.566 116.436 183.746 116.504 183.927 116.569C184.118 116.639 184.307 116.71 184.5 116.775C184.568 116.8 184.636 116.823 184.707 116.848C184.93 116.923 185.154 116.999 185.38 117.072C185.403 117.079 185.425 117.087 185.45 117.094C185.687 117.17 185.923 117.245 186.162 117.316C186.181 117.323 186.2 117.329 186.22 117.333C186.476 117.411 186.737 117.487 186.996 117.559C187.378 117.665 187.763 117.766 188.147 117.859C188.218 117.876 188.288 117.894 188.358 117.909C188.564 117.959 188.768 118.007 188.974 118.052C189.193 118.102 189.414 118.148 189.633 118.193C189.854 118.238 190.075 118.283 190.294 118.324C190.412 118.346 190.53 118.369 190.645 118.389L190.954 118.442C191.168 118.479 191.382 118.512 191.598 118.547C191.604 118.547 191.61 118.548 191.615 118.55C191.859 118.588 192.101 118.623 192.344 118.653C192.578 118.686 192.812 118.713 193.046 118.741C193.093 118.746 193.144 118.751 193.194 118.756C193.387 118.779 193.581 118.801 193.774 118.819C193.83 118.824 193.885 118.829 193.94 118.834C194.131 118.852 194.322 118.869 194.513 118.882C194.552 118.887 194.59 118.889 194.629 118.889C194.8 118.904 194.971 118.917 195.142 118.924C195.262 118.934 195.38 118.939 195.501 118.947C195.564 118.95 195.624 118.952 195.687 118.955C195.853 118.965 196.019 118.97 196.187 118.975C196.391 118.982 196.594 118.987 196.795 118.992C197.039 118.997 197.285 119 197.529 119H197.534C197.773 119 198.014 118.997 198.253 118.992H198.343L198.607 118.985C198.743 118.982 198.879 118.977 199.012 118.972C199.268 118.962 199.522 118.95 199.776 118.934C199.877 118.929 199.98 118.922 200.08 118.917C200.125 118.914 200.173 118.909 200.218 118.907C200.377 118.897 200.533 118.887 200.691 118.874C200.854 118.862 201.02 118.846 201.183 118.829C201.395 118.809 201.606 118.786 201.817 118.764C201.983 118.746 202.149 118.726 202.312 118.706C202.334 118.704 202.356 118.7 202.377 118.696C202.536 118.678 202.694 118.658 202.85 118.635C203.036 118.61 203.219 118.583 203.403 118.555C203.423 118.552 203.44 118.55 203.46 118.547C203.777 118.497 204.096 118.447 204.416 118.389C204.75 118.329 205.084 118.263 205.416 118.195C205.539 118.17 205.66 118.143 205.783 118.118C205.851 118.102 205.921 118.09 205.986 118.075C206.089 118.052 206.19 118.03 206.29 118.004C206.308 118.002 206.328 117.997 206.346 117.994C206.486 117.964 206.625 117.929 206.765 117.894C207.047 117.826 207.323 117.756 207.6 117.68C207.723 117.65 207.846 117.617 207.964 117.585C207.999 117.575 208.035 117.564 208.067 117.554C208.577 117.411 209.083 117.26 209.585 117.099C209.806 117.029 210.025 116.956 210.244 116.878C210.714 116.717 211.18 116.548 211.641 116.37C211.764 116.325 211.887 116.275 212.011 116.227C212.192 116.154 212.372 116.081 212.551 116.008C212.712 115.941 212.873 115.873 213.036 115.802C213.116 115.77 213.197 115.735 213.277 115.699C213.519 115.594 213.76 115.486 213.999 115.378C214.159 115.302 214.318 115.229 214.476 115.154C214.727 115.033 214.976 114.91 215.225 114.787C215.288 114.754 215.348 114.721 215.409 114.691C215.567 114.611 215.725 114.528 215.886 114.447C216.14 114.312 216.394 114.176 216.645 114.035C216.73 113.99 216.813 113.942 216.899 113.894C217.175 113.739 217.449 113.58 217.721 113.419C218.321 113.06 218.914 112.685 219.498 112.293C219.643 112.198 219.789 112.097 219.932 111.999C220.204 111.813 220.47 111.622 220.737 111.431C220.764 111.411 220.789 111.391 220.817 111.373C220.95 111.275 221.083 111.177 221.217 111.077C221.493 110.868 221.767 110.657 222.041 110.441C222.046 110.438 222.054 110.431 222.061 110.426C222.184 110.327 222.307 110.229 222.428 110.131C222.802 109.827 223.172 109.518 223.534 109.199C223.712 109.045 223.888 108.887 224.062 108.729C224.192 108.611 224.323 108.492 224.451 108.372C224.71 108.128 224.964 107.887 225.215 107.64C225.341 107.52 225.464 107.394 225.59 107.268C225.713 107.143 225.838 107.017 225.962 106.889C226.004 106.846 226.047 106.801 226.09 106.755C226.215 106.622 226.341 106.486 226.467 106.353C226.575 106.238 226.68 106.117 226.788 105.996C226.969 105.795 227.153 105.594 227.331 105.39C227.341 105.379 227.351 105.368 227.362 105.358C227.372 105.345 227.382 105.335 227.389 105.325H227.387C231.04 101.1 233.754 96.1469 235.35 90.7939C236.946 85.4409 237.387 79.8099 236.644 74.2736C235.901 68.7373 233.991 63.422 231.04 58.6793C228.09 53.9367 224.165 49.8749 219.528 46.7627L219.528 46.7627Z" fill="#FB9400"/>
<g opacity="0.15">
<path opacity="0.15" d="M168.658 17.0986C169.159 18.8986 169.913 20.6183 170.897 22.2065C169.25 20.7912 167.778 19.1836 166.513 17.418C167.223 17.2836 167.938 17.1772 168.658 17.0986Z" fill="black"/>
<path opacity="0.15" d="M144.134 44.935C142.273 45.9504 140.534 47.1732 138.949 48.58C141.626 45.4146 143.582 41.705 144.682 37.7082C144.695 37.6602 144.708 37.6119 144.721 37.5638L144.759 37.4278C146.081 32.6576 148.646 28.3242 152.191 24.8708L152.47 24.5991L152.667 24.9348C153.754 26.7834 155.054 28.4975 156.542 30.0419C154.263 36.4755 149.827 41.8301 144.134 44.935Z" fill="black"/>
<path opacity="0.15" d="M157.235 27.8126L157.198 27.9487C157.185 27.9968 157.171 28.0451 157.158 28.0931C157.084 28.3576 157.006 28.6202 156.926 28.8816C156.131 26.8219 155.573 24.6785 155.262 22.4926L155.232 22.3071L155.385 22.1981C157.297 20.8237 159.375 19.6943 161.568 18.8364C159.599 21.5453 158.131 24.5855 157.235 27.8126Z" fill="black"/>
<path opacity="0.15" d="M131.658 54.55C133.304 53.6488 134.845 52.567 136.251 51.3247C133.441 54.5972 131.427 58.4762 130.366 62.6576C129.305 66.8391 129.227 71.2094 130.137 75.4261C131.048 79.6429 132.922 83.5915 135.613 86.9626C138.305 90.3337 141.74 93.0356 145.65 94.8568L145.777 94.9155L145.904 94.8582C148.016 93.9039 150.242 93.2276 152.528 92.8462C151.101 93.5731 149.771 94.4762 148.569 95.5342L148.163 95.8859L148.673 96.0543C149.113 96.1999 149.554 96.3339 149.982 96.4528C152.497 97.1535 155.097 97.5015 157.708 97.4868C169.571 97.4108 181.526 100.154 193.241 105.64C195.25 106.579 197.334 107.35 199.471 107.943C208.784 110.536 218.726 109.603 227.394 105.323C222.507 110.976 216.117 115.126 208.966 117.292C201.815 119.457 194.196 119.55 186.995 117.558C184.858 116.965 182.774 116.194 180.765 115.255C169.05 109.769 157.095 107.026 145.232 107.102C142.621 107.117 140.021 106.769 137.506 106.068C137.078 105.949 136.637 105.815 136.197 105.669L135.687 105.501L136.093 105.149C137.295 104.091 138.625 103.188 140.052 102.461C137.766 102.843 135.539 103.519 133.428 104.473L133.301 104.53L133.174 104.472C128.478 102.286 124.483 98.8381 121.632 94.513C118.782 90.188 117.19 85.1559 117.032 79.9782C116.875 74.8006 118.159 69.6811 120.742 65.191C123.325 60.7009 127.104 57.0168 131.658 54.55L131.658 54.55Z" fill="black"/>
</g>
</g>
<defs>
<clipPath id="clip0_827_18247">
<rect width="237" height="200" fill="white" transform="translate(0 0.5)"/>
</clipPath>
</defs>
</svg>
